<svg xmlns="http://www.w3.org/2000/svg" width="293" height="60" fill="none" viewBox="0 0 293 60"><g id="ic" fill="currentColor"><path d="M192.858 53.499c8.212-8.249 8.176-21.585-.083-29.787L175.177 6.233A21.04 21.04 0 0 0 160.248.106a21.04 21.04 0 0 0-14.895 6.21l-17.501 17.576c-8.212 8.248-8.176 21.584.083 29.786s21.611 8.166 29.824-.082l2.63-2.642 2.645 2.627c8.258 8.202 21.611 8.166 29.824-.082"/><path fill-rule="evenodd" d="M79.7.212C69.364.24 61.008 8.632 61.037 18.955l.06 21.998c.03 10.322 8.431 18.667 18.768 18.64h.052l21.974-.062c10.336-.028 18.692-8.42 18.663-18.743s-8.431-18.669-18.767-18.64l-3.311.009-.01-3.305C98.439 8.527 90.037.183 79.7.212M40.907 59.766c10.336-.029 18.692-8.42 18.663-18.743l-.06-21.668.002-.33C59.482 8.702 51.08.356 40.744.385L18.72.446C8.383.475.027 8.866.056 19.19c.029 10.324 8.43 18.668 18.767 18.64l3.307-.009.01 3.306c.028 10.323 8.43 18.669 18.767 18.64" clip-rule="evenodd"/></g></svg>