<svg xmlns="http://www.w3.org/2000/svg" width="202" height="60" fill="none" viewBox="0 0 202 60"><path id="ic" fill="currentColor" d="M172.197 8.945c.774 0 1.496.166 2.103.553 1.385.718 2.269 2.214 2.269 3.876v12.462h12.068a4.347 4.347 0 0 1 4.372 4.374 4.347 4.347 0 0 1-4.372 4.373h-12.068v11.854a4.347 4.347 0 0 1-4.372 4.374h-33.602a4.347 4.347 0 0 1-4.371-4.374V29.99c.11-2.326 2.047-4.208 4.371-4.208h29.227v-8.089h-33.713l-15.998 29.744c-.276 1.33-1.109 2.49-2.379 3.102-.608.277-1.274.443-1.882.443-1.495 0-2.99-.774-3.764-2.16-.165-.22-.276-.497-.386-.773L97.079 23.235l-12.787 24.26c-.552 1.275-1.385 2.436-2.66 3.103-.607.276-1.274.442-1.881.442-1.496 0-2.99-.774-3.764-2.16-.166-.22-.276-.497-.387-.773L60.154 17.81H34.356v8.088h20.87a4.347 4.347 0 0 1 4.372 4.374 4.347 4.347 0 0 1-4.371 4.373H34.356v12.075a4.347 4.347 0 0 1-4.371 4.374 4.347 4.347 0 0 1-4.372-4.374V34.646h-12.29a4.347 4.347 0 0 1-4.37-4.373 4.347 4.347 0 0 1 4.37-4.374h12.07V13.437c0-1.662.942-3.102 2.268-3.876a4.4 4.4 0 0 1 2.103-.553h32.714a4.1 4.1 0 0 1 1.993.498 4 4 0 0 1 2.158 2.104L79.58 37.03l12.953-24.26c.662-1.33.998-2.546 2.434-3.213.607-.276 1.274-.442 1.882-.442 1.108 0 2.158.387 2.935 1.164.773.608 1.164 1.054 1.716 2.104l12.235 24.648 13.729-25.477c.332-.608.829-1.109 1.44-1.496.774-.608 1.717-.998 2.825-.998h40.467m-29.392 32.952h25.021v-7.42h-25.021zm29.392-42.04H131.73c-2.935 0-5.811 1-8.139 2.772a12.95 12.95 0 0 0-3.874 4.263l-.055.11-.056.11-5.59 10.414s-6.478-12.738-8.416-14.29A13.38 13.38 0 0 0 96.854.084c-1.993 0-3.985.442-5.812 1.33-3.487 1.662-5.424 4.765-7.03 8.365l-4.206 7.863L74.657 7.56a13.3 13.3 0 0 0-6.367-6.202 13.3 13.3 0 0 0-5.812-1.33H29.764c-2.214 0-4.427.553-6.368 1.607-4.316 2.324-6.975 6.868-6.975 11.743v3.49H13.32c-7.362 0-13.343 5.98-13.343 13.35s5.977 13.35 13.343 13.35h3.1v3.102c0 7.366 5.978 13.35 13.344 13.35s13.343-5.98 13.343-13.35v-3.103h11.848a13.3 13.3 0 0 0 7.03-1.993l5.26 10.303c.275.607.551 1.164.887 1.717 2.434 3.987 6.754 6.426 11.402 6.426 1.992 0 3.984-.442 5.811-1.33 3.267-1.552 6.088-4.208 7.528-7.587l3.819-8.475 4.762 9.304c.276.608.552 1.164.884 1.717 2.434 3.987 6.754 6.426 11.402 6.426 1.992 0 3.984-.442 5.811-1.33a13.6 13.6 0 0 0 6.644-7.2 13.4 13.4 0 0 0 12.4 8.31h33.602c7.362 0 13.343-5.76 13.343-13.126v-3.102h3.101c7.362 0 13.343-5.98 13.343-13.35 0-7.366-5.977-13.35-13.343-13.35h-3.101v-3.49c0-4.93-2.655-9.414-6.975-11.743-1.937-1.169-4.154-1.721-6.368-1.721"/></svg>