<svg xmlns="http://www.w3.org/2000/svg" width="120" height="60" fill="none" viewBox="0 0 120 60"><g id="ic" fill="currentColor"><path d="M57.034 21.896h-2.089v-2.101h4.708v5.996c-1.461.71-3.102 1.065-5.27 1.065-1.881 0-3.678-.63-3.678-3.378v-4.51c0-2.73 1.074-3.976 4.08-3.976 1.286 0 2.908.161 4.564.45l-.467 2.037c-1.781-.277-2.89-.373-3.809-.373-1.576 0-1.752.614-1.752 1.988v4.345c0 1.133.435 1.326 1.605 1.326.563 0 1.494-.145 2.105-.322V21.89zM62.192 26.712V15.14h7.938l-.339 2.164h-4.98v2.31h4.916l-.336 2.165h-4.58v2.763h5.255v2.165h-7.87zM78.743 26.712l-2.12-4.64h-1.526v4.64h-2.619V15.14h4.433c2.363 0 4.177.37 4.177 3.377v.486c0 1.454-.608 2.361-1.894 2.828l2.504 4.88zm-.271-8.422c0-.711-.34-1.036-1.398-1.036h-1.977v2.828h2.217c.819 0 1.158-.341 1.158-1.049zM93.35 26.712v-7.628l-2.78 5.852h-1.685l-2.78-5.852v7.628h-2.539V15.14h3.183l2.97 6.45 2.991-6.45h3.182v11.57H93.35M105.739 26.712l-.678-2.101h-3.87l-.674 2.1h-2.908l4.049-11.57h2.939l4.033 11.57zm-2.619-9.017-1.446 4.815h2.911zM117.08 26.712l-4.192-7.274v7.274h-2.54V15.14h2.524l4.288 7.176v-7.176h2.556v11.57h-2.639zM50.983 43.261v-13.8H56.1c3.735 0 5.478 1.02 5.478 4.722v4.356c0 3.085-.956 4.722-5.117 4.722H50.98zm7.474-8.927c0-1.521-.077-2.351-2.031-2.351h-2.319v8.769h2.166c1.838 0 2.184-.518 2.184-1.83zM64.262 43.261v-13.8h9.466l-.403 2.583h-5.939v2.757h5.863l-.403 2.583h-5.463v3.294h6.265v2.583h-9.39zM86.49 39.386c0 2.486-1.724 4.047-5.31 4.047-2.05 0-4.023-.367-5.213-.695l.841-2.506c.864.232 2.607.618 4.35.618 1.551 0 2.146-.618 2.146-1.619v-.328c0-1.119-.518-1.444-1.82-1.444H79.8c-2.568 0-3.812-1.467-3.812-3.78v-.366c.057-2.641 1.608-4.028 4.291-4.028h.461c1.743 0 4.465.309 5.709.502l-.921 2.448c-1.417-.174-3.448-.347-4.503-.367h-.519c-1.016 0-1.359.56-1.359 1.367v.386c0 .695.288 1.178 1.244 1.178h1.974c2.53 0 4.119 1.039 4.119 3.892v.695zM89.153 43.261v-13.8h3.125v13.8zM102.643 37.517h-2.491v-2.506h5.613v7.151c-1.743.846-3.697 1.27-6.285 1.27-2.242 0-4.388-.752-4.388-4.03v-5.375c0-3.256 1.286-4.742 4.868-4.742 1.532 0 3.467.193 5.443.54l-.556 2.43c-2.127-.329-3.448-.441-4.542-.441-1.877 0-2.088.733-2.088 2.37v5.183c0 1.35.518 1.58 1.916 1.58.671 0 1.784-.175 2.51-.387zM116.575 43.261l-5.002-8.672v8.672h-3.026v-13.8h3.01l5.114 8.557V29.46h3.048v13.8zM59.205 59.683l-.793-2.47h-4.551l-.793 2.47h-3.42l4.76-13.597h3.457l4.74 13.597zM56.13 49.084l-1.699 5.662h3.416zM74.537 59.683 72.084 50.3l-2.437 9.383H65.57l-2.984-13.597h3.362l1.775 10.294 2.626-9.876h3.492l2.626 9.876 1.775-10.294h3.342l-2.984 13.597h-4.062M91.117 59.683l-.79-2.47h-4.551l-.793 2.47h-3.419l4.759-13.597h3.454l4.74 13.597zM88.04 49.084l-1.698 5.662h3.419l-1.718-5.662zM103.804 59.683l-2.491-5.449h-1.794v5.45h-3.077V46.085h5.213c2.776 0 4.909.437 4.909 3.97v.569c0 1.708-.716 2.77-2.229 3.323l2.946 5.735zm-.32-9.894c0-.837-.396-1.217-1.644-1.217h-2.321v3.323h2.606c.963 0 1.359-.395 1.359-1.235v-.875zM109.558 59.683V46.086h5.04c3.681 0 5.402 1.007 5.402 4.651v4.295c0 3.037-.944 4.651-5.044 4.651zm7.362-8.791c0-1.502-.077-2.32-2.002-2.32h-2.284v8.64h2.134c1.813 0 2.152-.51 2.152-1.804v-4.52zM25.928 14.646V9.255C30.28 7.78 33.124 4.278 33.213 0h-6.48c-.105 2.162-1.89 3.847-4.067 3.847S18.703 2.162 18.598 0h-6.48c.09 4.278 2.933 7.781 7.282 9.255v5.391C8.344 16.206 0 25.735 0 37.202 0 49.793 10.148 60 22.666 60S45.33 49.793 45.33 37.202c0-11.47-8.315-20.996-19.4-22.556zm-3.262 39.29c-8.082 0-14.818-5.816-16.32-13.5h6.7c1.455 4.371 5.213 7.257 9.53 7.298v-6.52c-2.203-.048-4.026-1.82-4.026-4.05s1.823-4.002 4.026-4.053v-6.52c-4.317.041-8.075 2.926-9.53 7.298H6.36c1.535-7.646 8.252-13.417 16.305-13.417 9.188 0 16.637 7.492 16.637 16.734S31.854 53.94 22.666 53.94z"/></g></svg>