<svg xmlns="http://www.w3.org/2000/svg" width="60" height="60" fill="none" viewBox="0 0 60 60"><g id="ic" fill="currentColor"><path d="M33.112 3.91a8.4 8.4 0 0 1-1.893 3.04 22 22 0 0 1-3.647 3.18 35 35 0 0 1-4.871 2.814 36 36 0 0 1-5.477 2.07c-1.616.467-3.28.75-4.959.845a8.8 8.8 0 0 1-3.483-.441 2.8 2.8 0 0 1-1.716-1.553 3.24 3.24 0 0 1 .253-2.523q.206-.466.48-.896A12 12 0 0 1 9.236 8.64c.29-.303.593-.593.92-.896l.884-.77.87-.706.821-.618.82-.568.82-.53.783-.48.782-.441a17 17 0 0 0-2.36 2.195c-.394.457-.729.961-.996 1.502a1.53 1.53 0 0 0-.076 1.262 1.45 1.45 0 0 0 .896.706 4.5 4.5 0 0 0 1.741.177 11.7 11.7 0 0 0 2.436-.454 17 17 0 0 0 2.662-1.01q1.243-.582 2.373-1.363a11.4 11.4 0 0 0 1.779-1.564c.423-.43.761-.935.997-1.49a1.26 1.26 0 0 0 0-1.16 1.63 1.63 0 0 0-.997-.669 3.9 3.9 0 0 0-1.741 0q-1.174.157-2.322.442a10 10 0 0 0-1.426.53A24 24 0 0 1 23.282.969 21.5 21.5 0 0 1 26.26.212a12.1 12.1 0 0 1 3.18-.177 6.6 6.6 0 0 1 2.347.631c.552.265.997.71 1.261 1.262a2.8 2.8 0 0 1 0 1.956M56.066 44.82a14 14 0 0 1-.783 1.754 15 15 0 0 1-1.01 1.463l-.365.48c-.416.53-1.085 1.262-1.085 1.262l-.921.997a26 26 0 0 1-3.206 2.801 31 31 0 0 1-3.785 2.524 34 34 0 0 1-4.392 1.981 31 31 0 0 1-4.58 1.35l-.909.164c-.29 0-.593.101-.883.152l-.858.1-.846.076-1.741.076h-2.183l-1.842-.164-.518-.063c-.757-.114-1.186-.177-1.943-.34-.757-.165-1.956-.468-1.956-.468l-.984-.34-.278-.127c.814.315 1.66.54 2.524.67q1.437.214 2.89.226 1.625.015 3.243-.151 1.801-.222 3.57-.631a42 42 0 0 0 8.253-2.7 43.2 43.2 0 0 0 7.408-4.14 33.3 33.3 0 0 0 5.729-5.047 16 16 0 0 0 1.45-1.855"/><path d="m39.05 1.423 1.982.745 1.943.896.694.353c.515.27.991.61 1.413 1.01.392.363.72.79.972 1.261a4.7 4.7 0 0 1 .467 1.59c.065.629.03 1.263-.101 1.88a13.6 13.6 0 0 1-2.99 5.654 35 35 0 0 1-6.373 5.868 55.5 55.5 0 0 1-8.833 5.236 56 56 0 0 1-10.032 3.673 37.4 37.4 0 0 1-8.215 1.262c-2.018.1-4.038-.174-5.956-.808a6.18 6.18 0 0 1-3.344-2.524 5.19 5.19 0 0 1-.53-3.786l.138-.63.556-2.083.706-2.019.72-1.716.668-1.388-.113.278v.063a5.05 5.05 0 0 0-.442 3.609 4.06 4.06 0 0 0 2.372 2.397c1.566.611 3.244.882 4.922.795 2.43-.08 4.841-.458 7.18-1.123a46.4 46.4 0 0 0 7.962-2.965 47 47 0 0 0 7.054-4.126 29.7 29.7 0 0 0 5.2-4.606 11.44 11.44 0 0 0 2.523-4.442 4.6 4.6 0 0 0 .088-1.969 3.3 3.3 0 0 0-.719-1.54c-.39-.44-.86-.8-1.388-1.06A7 7 0 0 0 36.25.642l-.72-.19q.364.052.72.14l1.186.302c.644.19 1.64.53 1.64.53"/><path d="m53.012 10.32 1.463 1.842 1.338 1.981.593 1.01a6.826 6.826 0 0 1 .858 3.256q.017.633-.075 1.261a15.7 15.7 0 0 1-3.218 7.142 37.9 37.9 0 0 1-7.445 7.357 59 59 0 0 1-10.562 6.436 60.4 60.4 0 0 1-12.127 4.315 43.5 43.5 0 0 1-8.152 1.149 25 25 0 0 1-6.435-.518 12.6 12.6 0 0 1-4.556-1.98 7.05 7.05 0 0 1-2.435-3.155l-.467-1.35-.644-2.297-.441-2.31-.101-.656-.127-1.262a5.7 5.7 0 0 0 1.54 3.23 8.9 8.9 0 0 0 4.101 2.31c2.104.567 4.284.806 6.461.707a41 41 0 0 0 8.505-1.262 60 60 0 0 0 11.458-4.14 59.5 59.5 0 0 0 10.02-6.018 37.5 37.5 0 0 0 7.142-6.814 15.04 15.04 0 0 0 3.217-6.638A7.4 7.4 0 0 0 53 12.263a5.7 5.7 0 0 0-.265-1.476 6 6 0 0 0-.606-1.262 5.3 5.3 0 0 0-.53-.657l1.262 1.262.19.215"/><path d="M60.255 27.557a16.2 16.2 0 0 1-.063 4.82 15 15 0 0 1-2.814 6.89 33.3 33.3 0 0 1-6.65 6.903 50 50 0 0 1-9.49 5.905 51 51 0 0 1-10.99 3.786 39 39 0 0 1-5.553.808c-1.6.14-3.208.14-4.808 0a19 19 0 0 1-3.987-.846 11.7 11.7 0 0 1-3.054-1.527l-1.817-1.426-1.514-1.375s-1.023-.984-1.628-1.704c-.606-.719-1.048-1.262-1.048-1.262a9 9 0 0 0 2.638 1.982 15.6 15.6 0 0 0 4.505 1.476c1.951.318 3.931.423 5.905.315a42 42 0 0 0 7.142-1.01 57.5 57.5 0 0 0 11.95-4.189 56 56 0 0 0 10.36-6.385 36 36 0 0 0 7.27-7.394 15.86 15.86 0 0 0 3.116-7.256 7 7 0 0 0 0-.732q.03-.36 0-.72.185.515.303 1.048s.19 1.148.265 1.893"/></g></svg>